/* XPM */
static char *_f4684e6c0364939f517f4ed8254e8ef[] = {
/* columns rows colors chars-per-pixel */
"32 32 113 2 ",
"   c #546A74",
".  c #546B74",
"X  c #556B74",
"o  c #546B75",
"O  c #566C76",
"+  c #5B737E",
"@  c #5B737F",
"#  c #60757F",
"$  c #5C7480",
"%  c #5D7581",
"&  c #5D7682",
"*  c #5E7782",
"=  c #5E7783",
"-  c #5E7883",
";  c #5E7C82",
":  c #5F7D83",
">  c #5F7884",
",  c #617680",
"<  c #617781",
"1  c #637983",
"2  c #607A85",
"3  c #617B86",
"4  c #677C86",
"5  c #677D87",
"6  c #697E88",
"7  c #6B7F88",
"8  c #6E828C",
"9  c #678B8E",
"0  c #688A8E",
"q  c #74868F",
"w  c #678390",
"e  c #688390",
"r  c #688491",
"t  c #688592",
"y  c #698592",
"u  c #6A8894",
"i  c #778C96",
"p  c #699092",
"a  c #6F999A",
"s  c #71979D",
"d  c #7D919B",
"f  c #7B919C",
"g  c #7F949E",
"h  c #7D95A0",
"j  c #7E96A1",
"k  c #759DA4",
"l  c #7BA9AC",
"z  c #7FAFB0",
"x  c #80959F",
"c  c #8196A0",
"v  c #8297A1",
"b  c #859AA4",
"n  c #869BA5",
"m  c #879CA6",
"M  c #889EA8",
"N  c #899EA9",
"B  c #899FA9",
"V  c #8A9FA9",
"C  c #8CA1AB",
"Z  c #8DA1AB",
"A  c #8EA3AD",
"S  c #90A4AE",
"D  c #80ADB0",
"F  c #92A6B0",
"G  c #9BA9B0",
"H  c #9BADB7",
"J  c #84BEB8",
"K  c #89C7BE",
"L  c #89C7BF",
"P  c #AEBDC4",
"I  c #B1BCC2",
"U  c #B1BDC2",
"Y  c #B3BEC4",
"T  c #8CCBC2",
"R  c #8DCCC3",
"E  c #94CBC5",
"W  c #93D8CC",
"Q  c #95DACE",
"!  c #97D9D0",
"~  c #96DAD1",
"^  c #9FDAD3",
"/  c #BAC6CD",
"(  c #BDC7CC",
")  c #BFC9CE",
"_  c #BECAD0",
"`  c #A1DDD5",
"'  c #BAD2D3",
"]  c #98E1D4",
"[  c #99E1D4",
"{  c #9AE4D6",
"}  c #9EEBDC",
"|  c #9FEBDD",
" . c #9FEDDD",
".. c #9FEDDE",
"X. c #A2F1E1",
"o. c #A3F1E1",
"O. c #A2F2E1",
"+. c #A2F2E2",
"@. c #A6F5E5",
"#. c #A5F6E5",
"$. c #A5F7E5",
"%. c #A7FAE8",
"&. c #A7FBE9",
"*. c #ABFDEB",
"=. c #AAFFEC",
"-. c #C5CFD5",
";. c #CBD4D8",
":. c #CED7DB",
">. c #CFD8DC",
",. c #D1D9DD",
"<. c #D2DADE",
"1. c #C0EAE4",
"2. c None",
/* pixels */
"2.2.2.2.2.2.2.2.2.2.2.2.2.2.2.2.2.2.2.2.2.2.2.2.2.2.2.2.2.2.2.2.",
"2.2.2.2.2.2.2.2.2.2.2.2.2.r r r r r r 2.2.2.2.2.2.2.2.2.2.2.2.2.",
"2.2.2.2.2.2.2.2.2.2.2.2.r r r r r r r r 2.2.2.2.2.2.2.2.2.2.2.2.",
"2.2.2.2.2.2.2.2.2.2.2.2.r r r r r r r r 2.2.2.2.2.2.2.2.2.2.2.2.",
"2.2.2.2.2.2.2.2.2.2.2.2.r r r r r r w r 2.2.2.2.2.2.2.2.2.2.2.2.",
"2.2.2.2.2.2.2.2.2.2.2.r r r r r r r t t r 2.2.2.2.2.2.2.2.2.2.2.",
"2.2.2.2.r r r 2.2.r r r r r r u u r r t r r r 2.2.r r r 2.2.2.2.",
"2.2.2.r r r r r r r r r D ! @.=.=.@.! z r r r r r r r r r 2.2.2.",
"2.2.2.r r r r r r r j ' *.=.=.=.=.=.=.=.} k w t r r r r r 2.2.2.",
"2.2.r r r r r r r B :.<.1.=.X.[ ] X.=.=.=.%.l t r r r r r r 2.2.",
"2.r r r r r r r j :.<.<.I 9         9 W =.=.%.s r r r r r r r 2.",
"2.2.r r r r r r ) <.<.G                 J =.=.{ 2 r r r r r 2.2.",
"2.2.2.r r r r B <.<.Y     : T X.X.T :   o Q *.=.a * r r r 2.2.2.",
"2.2.2.2.r r r P <.<.q   : X.=.=.=.=.X.:   p =.=.R   * w 2.2.2.2.",
"2.2.2.2.r r r -.<.;.o   K =.=.=.=.=.=.K   o @.*. .o   + 2.2.2.2.",
"2.2.2.2.r r r >.<.)      .=.=.=.=.=.=.}     E ` ^ o o o 2.2.2.2.",
"2.2.2.2.r r r >.<.)      .=.=.=.=.=.=.}     m F S       2.2.2.2.",
"2.2.2.2.r r r -.<.;.o   K =.=.=.=.=.=.K     A F V       2.2.2.2.",
"2.2.2.2.r r r P <.<.q   ; X.*.=.=.=.X.:   1 F F d       2.2.2.2.",
"2.2.2.r r r r B <.<.Y     : T o.X.T :   o v F F 4 o     o 2.2.2.",
"2.2.r r r r r r _ <.<.G o               i S S m             2.2.",
"2.r r r r r r w j :.<.<.I 6         < j F F S #             o 2.",
"2.2.r r r r r r w B :.<.<.H Z b b C F F F S 4             o 2.2.",
"2.2.2.r r r r r r w f ( / F F F F F F F m < o             2.2.2.",
"2.2.2.r r r r r r r r 2 8 c Z F F Z x 4       o           2.2.2.",
"2.2.2.2.r r r 2.2.r r r < o o o O   o         2.2.    o 2.2.2.2.",
"2.2.2.2.2.2.2.2.2.2.2.r r = o             2.2.2.2.2.2.2.2.2.2.2.",
"2.2.2.2.2.2.2.2.2.2.2.2.r r *         o 2.2.2.2.2.2.2.2.2.2.2.2.",
"2.2.2.2.2.2.2.2.2.2.2.2.r r e *         2.2.2.2.2.2.2.2.2.2.2.2.",
"2.2.2.2.2.2.2.2.2.2.2.2.r r r r @ o     2.2.2.2.2.2.2.2.2.2.2.2.",
"2.2.2.2.2.2.2.2.2.2.2.2.2.r r r r @   2.2.2.2.2.2.2.2.2.2.2.2.2.",
"2.2.2.2.2.2.2.2.2.2.2.2.2.2.2.2.2.2.2.2.2.2.2.2.2.2.2.2.2.2.2.2."
};
