/* XPM */
static char *image_xpm[] = {
/* width height ncolors chars_per_pixel */
"28 32 55 1",
"  c #000066",
". c #7d7c7d",
"+ c #010165",
"@ c #010167",
"# c #414042",
"$ c #f4f3f4",
"% c #656465",
"& c #acabac",
"* c #59585a",
"= c #717071",
"- c #46454f",
"; c #131368",
"> c #0e0e6c",
", c #959495",
"' c #3a3952",
") c #ffffff",
"! c #101063",
"~ c #898889",
"{ c #34335d",
"] c #2d2c4d",
"^ c #030365",
"/ c #030367",
"( c #030368",
"_ c #0d0d67",
": c #07076a",
"< c #3f3e50",
"[ c #0d0d69",
"} c #4b4a4d",
"| c #040463",
"1 c #d0cfd0",
"2 c #4d4c4e",
"3 c #333249",
"4 c #0d0d6c",
"5 c #e8e7e8",
"6 c #0d0d6d",
"7 c #3a3946",
"8 c #414150",
"9 c #393846",
"0 c #6699ff",
"a c #2a2a4e",
"b c #b8b7b8",
"c c #050568",
"d c #0a0a6c",
"e c #080869",
"f c #050569",
"g c #3b3a45",
"h c #a09fa0",
"i c #dcdbdc",
"j c #1e1e71",
"k c #bfbfc2",
"l c #c4c3c4",
"m c #2d2d69",
"n c #06066a",
"o c #3f3e42",
"p c #403f42",
"))))))))))))))))))))))))))))",
"))))))))))))5h1)))))))))))))",
"))))))))))$h2##.5)))))))))))",
")))))))))l*#,$b2#h$)))))))))",
")))))))i=#%5000$,#*b))))))))",
")))))$~#!|-h$00005=#=1))))))",
"))))&2#[ fcg*b000001*#~$))))",
"))1*#~*3/f :_7=i00000h22h)))",
"5=#=100h}2>   {#~$0000$~#*l)",
"h#%$00005~#*f  /82&00000,#2)",
"h222&000001=#mn ( g*101%#2#)",
"h=5~#*100000b2#jd 6+#*#%1h#)",
"h=001%#.50000$h#'4@e##h00h#)",
"h=0000b2#h$00005=#2o;]100h#)",
"h=00000$h#*b000i=##  9100h#)",
"h=00000005=#=l~#*,#  p100h#)",
"h=0000000001*#2h01#  9100h#)",
"h=00000000000#1001#^ap100h#)",
"h=00000000000#1001#<k1000h#)",
"h=00000000000#100i#b00000h#)",
"h=00000000000#10000000000h#)",
"h=00000000000#10000000000h#)",
"h=00000000000#10000000000h#)",
"h%$0000000000#10000000000~#)",
"l#2b000000000#100000000i=#.)",
")5=#=10000000#1000000$~#*l))",
")))1*#~$00000#100000&22h))))",
")))))h22h0000#10001*#~$)))))",
"))))))$~#*l00#105=#=1)))))))",
"))))))))i=#=5#lh#2b)))))))))",
"))))))))))b*####h$))))))))))",
")))))))))))$h2.5))))))))))))",
};